<svg width="24" height="24" viewBox="0 0 24 24" fill="none" xmlns="http://www.w3.org/2000/svg">
<path d="M11.25 16.5L11.25 11.5C11.25 11.0858 11.5858 10.75 12 10.75C12.4142 10.75 12.75 11.0858 12.75 11.5V16.5C12.75 16.9142 12.4142 17.25 12 17.25C11.5858 17.25 11.25 16.9142 11.25 16.5Z" fill="black"/>
<path d="M11.4522 6.99701C11.7293 6.68913 12.2039 6.66426 12.5117 6.94135C12.8196 7.21844 12.8445 7.69304 12.5674 8.00092L12.5576 8.01166C12.2805 8.31954 11.806 8.34442 11.4981 8.06732C11.1903 7.79021 11.1654 7.31558 11.4424 7.00775L11.4522 6.99701Z" fill="black"/>
<path d="M21.25 12C21.25 6.89137 17.1086 2.75 12 2.75C6.89137 2.75 2.75 6.89137 2.75 12C2.75 17.1086 6.89137 21.25 12 21.25C17.1086 21.25 21.25 17.1086 21.25 12ZM22.75 12C22.75 17.9371 17.9371 22.75 12 22.75C6.06294 22.75 1.25 17.9371 1.25 12C1.25 6.06294 6.06294 1.25 12 1.25C17.9371 1.25 22.75 6.06294 22.75 12Z" fill="black"/>
</svg>
