<svg width="50" height="31" viewBox="0 0 50 31" fill="none" xmlns="http://www.w3.org/2000/svg">
<path d="M8.58668 17.2525C7.42375 17.2525 6.33733 17.0459 5.32741 16.6328C4.3175 16.2043 3.42999 15.6152 2.66491 14.8654C1.91512 14.1003 1.32601 13.2205 0.897556 12.2259C0.484409 11.2159 0.277836 10.1295 0.277836 8.96659C0.277836 7.80365 0.484409 6.72488 0.897556 5.73027C1.32601 4.72035 1.91512 3.8405 2.66491 3.09072C3.42999 2.32563 4.3175 1.73651 5.32741 1.32337C6.33733 0.894918 7.42375 0.680694 8.58668 0.680694C9.74961 0.680694 10.836 0.894918 11.846 1.32337C12.8559 1.73651 13.7357 2.32563 14.4855 3.09072C15.2506 3.8405 15.8397 4.72035 16.2529 5.73027C16.6813 6.72488 16.8955 7.80365 16.8955 8.96659C16.8955 10.1295 16.6813 11.2159 16.2529 12.2259C15.8397 13.2205 15.2506 14.1003 14.4855 14.8654C13.7357 15.6152 12.8559 16.2043 11.846 16.6328C10.836 17.0459 9.74961 17.2525 8.58668 17.2525ZM8.58668 13.7407C9.18345 13.7407 9.74196 13.626 10.2622 13.3964C10.7825 13.1516 11.2339 12.815 11.6164 12.3865C11.999 11.9428 12.2974 11.4378 12.5116 10.8717C12.7258 10.2902 12.8329 9.65516 12.8329 8.96659C12.8329 8.27801 12.7258 7.65064 12.5116 7.08447C12.2974 6.50301 11.999 5.99805 11.6164 5.5696C11.2339 5.12585 10.7825 4.78921 10.2622 4.55968C9.74196 4.31486 9.18345 4.19244 8.58668 4.19244C7.98991 4.19244 7.4314 4.31486 6.91114 4.55968C6.39088 4.78921 5.93948 5.12585 5.55694 5.5696C5.17439 5.99805 4.87601 6.50301 4.66178 7.08447C4.44756 7.65064 4.34045 8.27801 4.34045 8.96659C4.34045 9.65516 4.44756 10.2902 4.66178 10.8717C4.87601 11.4378 5.17439 11.9428 5.55694 12.3865C5.93948 12.815 6.39088 13.1516 6.91114 13.3964C7.4314 13.626 7.98991 13.7407 8.58668 13.7407ZM19.4271 17V0.933172H23.1454L30.2837 10.6651L30.2148 0.933172H33.9331V17H30.4443L23.0766 6.94676L23.1454 17H19.4271ZM37.2137 17V0.933172H49.3556V4.23835H41.1616V7.29105H46.9456V10.5044H41.1616V13.6948H49.4474V17H37.2137Z" fill="black"/>
<path d="M10.0572 30V19.8525H12.5506V23.7955H16.653V19.8525H19.1464V30H16.653V25.9845H12.5506V30H10.0572ZM25.2474 30.145C24.339 30.145 23.5465 29.9613 22.87 29.5941C22.1935 29.2172 21.6716 28.6905 21.3044 28.014C20.9371 27.3278 20.7535 26.5209 20.7535 25.5931V19.8525H23.2469V25.5931C23.2469 26.057 23.329 26.4629 23.4933 26.8108C23.6576 27.1587 23.8896 27.4293 24.1892 27.6226C24.4888 27.8159 24.8415 27.9125 25.2474 27.9125C25.6533 27.9125 26.006 27.8159 26.3056 27.6226C26.6052 27.4293 26.8372 27.1587 27.0015 26.8108C27.1658 26.4629 27.2479 26.057 27.2479 25.5931V19.8525H29.7413V25.5931C29.7413 26.5209 29.5577 27.3278 29.1904 28.014C28.8232 28.6905 28.3013 29.2172 27.6248 29.5941C26.958 29.9613 26.1655 30.145 25.2474 30.145ZM31.4984 30V19.8525H36.5142C37.1714 19.8525 37.7512 19.9733 38.2538 20.2149C38.766 20.4469 39.167 20.7706 39.457 21.1862C39.7469 21.6018 39.8918 22.0801 39.8918 22.6213C39.8918 23.0949 39.7565 23.5249 39.4859 23.9115C39.2153 24.2884 38.8578 24.5928 38.4132 24.8248C38.9447 25.0374 39.37 25.3515 39.6889 25.7671C40.0175 26.173 40.1818 26.6368 40.1818 27.1587C40.1818 27.7096 40.032 28.2024 39.7324 28.6373C39.4425 29.0626 39.0414 29.396 38.5292 29.6376C38.017 29.8792 37.4226 30 36.7461 30H31.4984ZM33.9918 23.926H36.2243C36.5722 23.926 36.8524 23.8294 37.0651 23.6361C37.2777 23.4428 37.384 23.1915 37.384 22.8823C37.384 22.5634 37.2777 22.3121 37.0651 22.1285C36.8621 21.9352 36.5818 21.8385 36.2243 21.8385H33.9918V23.926ZM33.9918 28.014H36.4272C36.8041 28.014 37.1037 27.9125 37.326 27.7096C37.5483 27.5066 37.6594 27.236 37.6594 26.8978C37.6594 26.5595 37.5483 26.2889 37.326 26.086C37.1037 25.883 36.8041 25.7816 36.4272 25.7816H33.9918V28.014Z" fill="#7D99A6"/>
</svg>
